<svg width="182" height="37" viewBox="0 0 182 37" fill="none" xmlns="http://www.w3.org/2000/svg">
<path d="M4.61796 16.3841L9.07473 30.7169L6.38907 31.552L1.9323 17.2192L4.61796 16.3841ZM12.2971 18.6495L9.46846 25.0106L7.85792 28.1192L6.27564 26.4841L7.40417 23.5355L9.07057 19.6527L12.2971 18.6495ZM12.6463 29.6063L8.21239 25.8716L9.56356 23.672L15.7422 28.6436L12.6463 29.6063Z" fill="#D82521"/>
<path d="M26.3888 26.0546C25.5925 26.2517 24.8471 26.3021 24.1526 26.2058C23.4565 26.1031 22.8309 25.879 22.2759 25.5335C21.7272 25.1864 21.2617 24.7416 20.8792 24.1991C20.4952 23.6503 20.2187 23.0346 20.0498 22.3521L19.9559 21.9729C19.7635 21.1956 19.6982 20.4572 19.7598 19.7579C19.8214 19.0585 19.999 18.421 20.2924 17.8454C20.5922 17.2681 21.0078 16.7796 21.5393 16.3798C22.0692 15.9736 22.7071 15.6783 23.4528 15.4937C24.1795 15.3138 24.8539 15.2743 25.4758 15.3752C26.0977 15.4762 26.653 15.7009 27.1416 16.0494C27.6366 16.3964 28.0587 16.8553 28.4079 17.4261C28.7556 17.9906 29.0225 18.6489 29.2086 19.4009L29.4902 20.5385L21.3378 22.5564L20.8873 20.7363L26.357 19.3825L26.3054 19.1739C26.2115 18.7947 26.0583 18.4738 25.8457 18.2112C25.638 17.9407 25.3763 17.7506 25.0607 17.6409C24.7452 17.5313 24.3757 17.5288 23.9523 17.6336C23.5921 17.7228 23.3019 17.8784 23.0819 18.1006C22.8619 18.3227 22.705 18.5963 22.6111 18.9213C22.5235 19.2448 22.4863 19.6095 22.4996 20.0153C22.5176 20.4133 22.5829 20.8398 22.6955 21.2948L22.7894 21.674C22.8911 22.0847 23.0418 22.4498 23.2416 22.7693C23.4477 23.0871 23.6895 23.3459 23.9669 23.5455C24.2507 23.7435 24.5646 23.8737 24.9087 23.9361C25.2591 23.9969 25.6333 23.9781 26.0315 23.8795C26.5244 23.7575 26.9591 23.5493 27.3356 23.2549C27.7169 22.9526 28.0138 22.5672 28.2265 22.0988L29.9103 23.2112C29.7721 23.574 29.5517 23.9438 29.2493 24.3205C28.9531 24.6956 28.5686 25.0389 28.0958 25.3504C27.6214 25.6557 27.0524 25.8904 26.3888 26.0546Z" fill="#D82521"/>
<path d="M41.9095 22.7216C41.103 22.8715 40.3559 22.878 39.6682 22.7409C38.9793 22.5975 38.368 22.337 37.8343 21.9595C37.307 21.5807 36.8684 21.1094 36.5185 20.5453C36.1674 19.9749 35.9276 19.344 35.7991 18.6527L35.7277 18.2687C35.5813 17.4814 35.5595 16.7405 35.6621 16.046C35.7647 15.3514 35.9795 14.7255 36.3062 14.1681C36.6394 13.6095 37.0831 13.1462 37.6371 12.7783C38.19 12.404 38.8441 12.1467 39.5994 12.0063C40.3355 11.8694 41.011 11.8696 41.6258 12.0069C42.2407 12.1443 42.7818 12.4012 43.2492 12.7779C43.7229 13.1534 44.1173 13.6363 44.4324 14.2267C44.7462 14.8106 44.974 15.4835 45.1156 16.2452L45.3298 17.3973L37.0729 18.9324L36.7301 17.089L42.27 16.059L42.2307 15.8478C42.1593 15.4638 42.0252 15.1344 41.8285 14.8598C41.6369 14.5775 41.3869 14.3724 41.0783 14.2443C40.7698 14.1163 40.4011 14.0921 39.9722 14.1719C39.6074 14.2397 39.3086 14.378 39.0759 14.5868C38.8433 14.7956 38.6705 15.0595 38.5576 15.3785C38.4512 15.6963 38.3926 16.0581 38.382 16.464C38.3766 16.8624 38.4167 17.292 38.5024 17.7528L38.5738 18.1369C38.6512 18.5529 38.7802 18.9262 38.9608 19.2569C39.1479 19.5863 39.3741 19.8588 39.6393 20.0744C39.9109 20.2887 40.2166 20.4372 40.5564 20.5197C40.9027 20.601 41.2774 20.6042 41.6806 20.5292C42.1799 20.4364 42.6261 20.2541 43.0192 19.9823C43.4176 19.703 43.7367 19.3357 43.9766 18.8806L45.592 20.09C45.4327 20.4441 45.191 20.8003 44.8669 21.1585C44.5492 21.5156 44.1452 21.8357 43.6549 22.1189C43.1633 22.3957 42.5815 22.5966 41.9095 22.7216Z" fill="#D82521"/>
<path d="M54.457 12.1252L55.478 20.3728L52.6868 20.7183L51.3887 10.2319L54.0055 9.90801L54.457 12.1252ZM54.3763 14.8117L53.6204 14.9053C53.5244 14.1299 53.5382 13.4197 53.6617 12.7747C53.7844 12.1232 53.9995 11.5553 54.3069 11.0712C54.6135 10.5806 55.0012 10.1882 55.4699 9.89401C55.9443 9.59256 56.4916 9.40345 57.1119 9.32666C57.6029 9.26588 58.0608 9.28136 58.4854 9.37312C58.9101 9.46488 59.2869 9.64783 59.6161 9.92197C59.9517 10.1953 60.2286 10.5776 60.4469 11.0688C60.6716 11.5593 60.8295 12.1728 60.9207 12.9093L61.7485 19.5966L58.9379 19.9445L58.1089 13.2475C58.0513 12.7823 57.9419 12.4285 57.7807 12.1861C57.6195 11.9436 57.4065 11.7863 57.1417 11.7141C56.8826 11.6347 56.5721 11.6174 56.2103 11.6621C55.8356 11.7085 55.5185 11.8232 55.2591 12.0062C55.0061 12.1884 54.8055 12.4232 54.6574 12.7105C54.515 12.9905 54.4201 13.3106 54.3728 13.6707C54.3256 14.0308 54.3267 14.4111 54.3763 14.8117Z" fill="#D82521"/>
<path d="M84.2789 7.55799L84.3448 9.54909L78.1959 9.75262L78.1299 7.76152L84.2789 7.55799ZM79.5663 5.10513L82.3773 5.01209L82.7078 14.9969C82.7179 15.3027 82.7647 15.5356 82.8481 15.6957C82.9381 15.8556 83.0655 15.9654 83.2303 16.0251C83.3949 16.0782 83.6009 16.1007 83.8481 16.0925C84.0238 16.0867 84.1798 16.075 84.316 16.0575C84.4585 16.0333 84.5782 16.0097 84.6752 15.987L84.7534 18.0559C84.5153 18.1419 84.257 18.2123 83.9787 18.2671C83.7005 18.322 83.3921 18.355 83.0538 18.3662C82.4356 18.3866 81.8922 18.3036 81.4236 18.1172C80.9612 17.9241 80.5988 17.6039 80.3365 17.1566C80.0742 16.7093 79.9307 16.1147 79.9062 15.3729L79.5663 5.10513Z" fill="#D82521"/>
<path d="M91.0075 12.8346L91.0116 12.6296C91.0273 11.855 91.1524 11.1445 91.3868 10.4981C91.6214 9.84513 91.9552 9.2821 92.388 8.80898C92.8208 8.33587 93.3491 7.97213 93.9729 7.71776C94.5968 7.45688 95.309 7.33454 96.1096 7.35073C96.9103 7.36692 97.6202 7.51803 98.2396 7.80405C98.8591 8.08356 99.3755 8.46843 99.7888 8.95865C100.209 9.44901 100.523 10.0251 100.731 10.687C100.939 11.3424 101.035 12.0574 101.019 12.832L101.015 13.037C101 13.8051 100.875 14.5156 100.64 15.1685C100.406 15.815 100.069 16.3779 99.6291 16.8574C99.1962 17.3305 98.6679 17.6943 98.0442 17.9487C97.4204 18.203 96.7082 18.3221 95.9076 18.3059C95.107 18.2897 94.397 18.1419 93.7775 17.8624C93.1645 17.583 92.6481 17.1981 92.2282 16.7078C91.815 16.211 91.5043 15.635 91.2962 14.9796C91.0882 14.3177 90.9919 13.6027 91.0075 12.8346ZM93.8236 12.6865L93.8194 12.8915C93.8105 13.3341 93.8411 13.7482 93.9115 14.1338C93.9818 14.5195 94.0987 14.8604 94.262 15.1568C94.4319 15.4467 94.6552 15.6759 94.9318 15.8443C95.2084 16.0127 95.5485 16.1009 95.952 16.1091C96.3426 16.117 96.6795 16.0424 96.9626 15.8853C97.2458 15.7283 97.4749 15.5083 97.65 15.2253C97.8251 14.9358 97.9556 14.5998 98.0415 14.2174C98.1339 13.835 98.1846 13.4226 98.1935 12.98L98.1977 12.7749C98.2063 12.3453 98.1722 11.9409 98.0952 11.5617C98.0249 11.176 97.9048 10.835 97.735 10.5385C97.5718 10.2357 97.352 9.99683 97.0755 9.82194C96.799 9.64704 96.4623 9.55558 96.0652 9.54755C95.6682 9.53952 95.328 9.61729 95.0447 9.78087C94.7679 9.94458 94.5386 10.1744 94.3568 10.4702C94.1816 10.7597 94.0511 11.0957 93.9652 11.4781C93.8795 11.8541 93.8322 12.2569 93.8236 12.6865Z" fill="#D82521"/>
<path d="M121.449 17.0343L124.606 9.5373L126.379 9.76011L125.424 12.7404L122.31 19.8983L120.827 19.712L121.449 17.0343ZM121.321 9.12456L121.906 17.0818L121.709 19.8228L119.965 19.6037L118.628 8.78609L121.321 9.12456ZM127.416 17.6462L129.896 10.2021L132.6 10.5418L128.627 20.6921L126.893 20.4742L127.416 17.6462ZM126.621 9.79055L127.823 17.7761L127.775 20.585L126.283 20.3975L125.035 12.7014L124.868 9.57017L126.621 9.79055Z" fill="#D82521"/>
<path d="M138.343 16.9711L138.382 16.7699C138.531 16.0095 138.776 15.3311 139.118 14.7346C139.462 14.1317 139.887 13.6344 140.395 13.2428C140.903 12.8511 141.486 12.5836 142.144 12.4403C142.803 12.2906 143.526 12.2925 144.312 12.4461C145.098 12.5997 145.771 12.8707 146.332 13.2589C146.894 13.6408 147.337 14.1087 147.66 14.6627C147.989 15.2179 148.199 15.8395 148.291 16.5273C148.383 17.2087 148.355 17.9296 148.206 18.6899L148.167 18.8912C148.019 19.6451 147.774 20.3236 147.431 20.9265C147.089 21.5229 146.66 22.0196 146.144 22.4164C145.637 22.808 145.054 23.0755 144.396 23.2189C143.737 23.3622 143.015 23.357 142.229 23.2034C141.443 23.0498 140.769 22.7821 140.207 22.4003C139.651 22.0196 139.209 21.5517 138.88 20.9965C138.558 20.4361 138.351 19.8152 138.259 19.1338C138.167 18.446 138.196 17.7251 138.343 16.9711ZM141.143 17.3093L141.103 17.5106C141.018 17.9451 140.977 18.3583 140.98 18.7503C140.983 19.1423 141.04 19.4982 141.15 19.8182C141.267 20.1331 141.448 20.3972 141.691 20.6107C141.935 20.8241 142.255 20.9696 142.651 21.047C143.034 21.1219 143.379 21.1064 143.685 21.0003C143.991 20.8943 144.254 20.7169 144.475 20.4683C144.698 20.2132 144.884 19.9047 145.034 19.5427C145.191 19.1819 145.312 18.7843 145.397 18.3498L145.436 18.1486C145.519 17.7268 145.555 17.3226 145.544 16.9357C145.541 16.5438 145.481 16.1872 145.365 15.8659C145.256 15.5395 145.081 15.2664 144.839 15.0466C144.596 14.8268 144.28 14.6788 143.891 14.6026C143.501 14.5264 143.152 14.5445 142.845 14.657C142.544 14.7707 142.279 14.9576 142.049 15.2178C141.827 15.4728 141.64 15.7814 141.49 16.1434C141.341 16.499 141.225 16.8876 141.143 17.3093Z" fill="#D82521"/>
<path d="M159.077 18.3051L157.048 26.3137L154.321 25.6229L156.917 15.3802L159.482 16.0303L159.077 18.3051ZM162.746 16.7867L162.058 19.3023C161.93 19.2498 161.773 19.1932 161.587 19.1326C161.409 19.0673 161.244 19.0155 161.093 18.9771C160.708 18.8795 160.361 18.8453 160.051 18.8743C159.749 18.8986 159.48 18.9814 159.243 19.1228C159.012 19.2657 158.814 19.4609 158.651 19.7083C158.494 19.9573 158.365 20.2537 158.264 20.5976L157.759 20.2881C157.926 19.6255 158.147 19.0332 158.42 18.5115C158.695 17.9834 159.012 17.543 159.369 17.1905C159.734 16.8395 160.131 16.5976 160.561 16.4648C160.991 16.3319 161.445 16.3263 161.925 16.4478C162.077 16.4862 162.228 16.538 162.379 16.6032C162.532 16.6621 162.655 16.7233 162.746 16.7867Z" fill="#D82521"/>
<path d="M173.93 15.4376L169.474 29.7704L166.788 28.9353L171.245 14.6025L173.93 15.4376ZM178.971 21.6581L173.034 25.2936L169.944 26.9408L169.568 24.6967L172.17 22.908L175.744 20.6549L178.971 21.6581ZM173.045 30.881L171.511 25.2905L173.871 24.245L176.141 31.8437L173.045 30.881Z" fill="#D82521"/>
</svg>
