<svg width="146" height="35" viewBox="0 0 146 35" fill="none" xmlns="http://www.w3.org/2000/svg">
<path d="M6.88726 20.9786L9.60001 28.7823L6.94345 29.7058L3.47395 19.7252L5.9737 18.8562L6.88726 20.9786ZM9.11514 17.6918L9.92517 20.1707C9.78962 20.1971 9.62747 20.2363 9.43871 20.2881C9.25396 20.3316 9.0878 20.3791 8.94021 20.4304C8.56509 20.5608 8.25627 20.7233 8.01375 20.9179C7.77524 21.1042 7.59581 21.3216 7.47546 21.5702C7.36126 21.8167 7.30399 22.0882 7.30367 22.3847C7.3095 22.679 7.36506 22.9975 7.47033 23.34L6.87761 23.3599C6.65315 22.7142 6.51143 22.0983 6.45245 21.5123C6.39133 20.9201 6.41322 20.3783 6.51811 19.887C6.62915 19.3934 6.82759 18.9729 7.11345 18.6254C7.39931 18.2779 7.77592 18.0229 8.24328 17.8605C8.39087 17.8092 8.54581 17.7691 8.70809 17.7403C8.86824 17.7053 9.00392 17.6891 9.11514 17.6918Z" fill="#35D81A"/>
<path d="M23.9058 24.6185C23.1131 24.8293 22.3686 24.8925 21.6725 24.8082C20.9748 24.7176 20.3454 24.5043 19.7845 24.1684C19.2299 23.8309 18.7567 23.3942 18.365 22.8584C17.9716 22.3163 17.6845 21.7055 17.5038 21.026L17.4034 20.6485C17.1976 19.8746 17.1195 19.1375 17.169 18.4372C17.2185 17.7369 17.385 17.0964 17.6685 16.5157C17.9583 15.9334 18.3654 15.4378 18.8899 15.0288C19.4127 14.6136 20.0453 14.3073 20.7878 14.1098C21.5113 13.9174 22.1848 13.8663 22.8084 13.9564C23.4319 14.0466 23.991 14.2617 24.4857 14.6017C24.9866 14.9401 25.4166 15.3916 25.7756 15.9563C26.1329 16.5148 26.4112 17.1683 26.6103 17.917L26.9115 19.0495L18.7951 21.208L18.3132 19.396L23.7587 17.9478L23.7035 17.7402C23.6031 17.3627 23.4444 17.0445 23.2273 16.7856C23.0149 16.5187 22.75 16.3332 22.4326 16.229C22.1152 16.1247 21.7457 16.1287 21.3242 16.2408C20.9655 16.3362 20.6781 16.4968 20.462 16.7227C20.2459 16.9486 20.0937 17.2249 20.0054 17.5515C19.9234 17.8765 19.8925 18.2417 19.9128 18.6473C19.9377 19.0448 20.0104 19.4701 20.1309 19.9231L20.2313 20.3006C20.34 20.7096 20.497 21.072 20.7023 21.388C20.9139 21.7022 21.1601 21.9567 21.4409 22.1515C21.7281 22.3446 22.0442 22.4694 22.3893 22.5258C22.7407 22.5806 23.1146 22.5552 23.511 22.4498C24.0017 22.3193 24.4328 22.1036 24.8041 21.8028C25.1801 21.494 25.4704 21.1035 25.6749 20.6314L27.3777 21.7146C27.2457 22.0797 27.0318 22.4533 26.7359 22.8351C26.4463 23.2153 26.0678 23.5652 25.6004 23.8849C25.1313 24.1982 24.5664 24.4428 23.9058 24.6185Z" fill="#35D81A"/>
<path d="M38.4815 19.1467C38.8212 19.0857 39.1108 18.9676 39.3506 18.7923C39.5892 18.6106 39.7609 18.388 39.8657 18.1244C39.9758 17.8533 40.0047 17.5538 39.9525 17.2258L42.5573 16.7583C42.682 17.49 42.6033 18.1755 42.3212 18.8148C42.0379 19.4477 41.602 19.9856 41.0134 20.4286C40.4237 20.8652 39.7283 21.1553 38.9273 21.2991C38.1199 21.444 37.3909 21.4359 36.7402 21.2749C36.096 21.1127 35.5327 20.8301 35.0503 20.4272C34.5667 20.0179 34.1687 19.5139 33.8562 18.9152C33.5425 18.31 33.3202 17.6422 33.1891 16.9117L33.139 16.6329C33.0068 15.896 32.9831 15.1925 33.0679 14.5225C33.1515 13.846 33.3494 13.235 33.6616 12.6895C33.9727 12.1376 34.402 11.6736 34.9497 11.2975C35.4973 10.9214 36.1716 10.6615 36.9726 10.5178C37.8249 10.3648 38.6008 10.3943 39.3002 10.6061C40.0061 10.8167 40.5963 11.1937 41.0708 11.7369C41.5506 12.2725 41.8678 12.9531 42.0226 13.7786L39.4177 14.2461C39.3492 13.9012 39.2192 13.6004 39.0276 13.3438C38.8424 13.086 38.6035 12.8973 38.3109 12.7779C38.0235 12.6508 37.6908 12.6213 37.3127 12.6891C36.909 12.7616 36.5945 12.9073 36.3692 13.1263C36.1428 13.3389 35.9856 13.6053 35.8975 13.9253C35.8083 14.239 35.7682 14.5868 35.7772 14.9689C35.7915 15.3433 35.8349 15.7324 35.9073 16.1361L35.9573 16.4149C36.0298 16.8186 36.125 17.2016 36.243 17.5641C36.3609 17.9266 36.5163 18.2393 36.709 18.5024C36.9081 18.7643 37.1508 18.9556 37.437 19.0762C37.7233 19.1968 38.0714 19.2203 38.4815 19.1467Z" fill="#35D81A"/>
<path d="M52.1472 10.8948L52.9962 19.1128L50.1986 19.4018L49.1128 8.89135L51.7452 8.61939L52.1472 10.8948ZM55.0701 8.20719L55.2895 10.8058C55.1515 10.8005 54.9847 10.8013 54.789 10.8084C54.5992 10.8084 54.4266 10.8164 54.2712 10.8325C53.8762 10.8733 53.5383 10.9606 53.2576 11.0943C52.9827 11.2209 52.7581 11.3913 52.5839 11.6057C52.4162 11.8193 52.2981 12.0704 52.2297 12.3589C52.1678 12.6468 52.1488 12.9694 52.1727 13.327L51.5912 13.2103C51.5209 12.5303 51.5244 11.8984 51.6015 11.3144C51.678 10.724 51.8236 10.2017 52.0385 9.74758C52.2599 9.29273 52.5496 8.92901 52.9075 8.6564C53.2655 8.3838 53.6906 8.22207 54.1828 8.17123C54.3382 8.15517 54.4982 8.15173 54.6628 8.16091C54.8267 8.16361 54.9625 8.17904 55.0701 8.20719Z" fill="#35D81A"/>
<path d="M69.1866 15.5854L68.9797 7.55094L71.7913 7.47856L72.0632 18.0415L69.4176 18.1096L69.1866 15.5854ZM69.4432 13.4101L70.2725 13.3692C70.2906 14.0721 70.226 14.7283 70.0789 15.3377C69.9316 15.9407 69.701 16.4676 69.3869 16.9186C69.0728 17.363 68.6715 17.7152 68.1833 17.9753C67.6948 18.2288 67.1155 18.3642 66.4451 18.3815C65.931 18.3947 65.454 18.3353 65.0143 18.2034C64.5809 18.0647 64.2039 17.8433 63.8835 17.5389C63.5694 17.2279 63.3181 16.8273 63.1297 16.3372C62.9476 15.8404 62.8475 15.2406 62.8294 14.5377L62.6537 7.71377L65.4653 7.6414L65.6414 14.4848C65.6495 14.7972 65.6921 15.0599 65.7692 15.2728C65.8528 15.4856 65.9647 15.6585 66.1049 15.7917C66.2451 15.9249 66.4071 16.0184 66.5908 16.0723C66.7811 16.126 66.9901 16.1499 67.2179 16.144C67.7971 16.1291 68.2497 16.0003 68.5756 15.7574C68.9079 15.5144 69.1373 15.1894 69.2636 14.7824C69.3962 14.3686 69.4561 13.9112 69.4432 13.4101Z" fill="#35D81A"/>
<path d="M83.3183 7.78522L82.829 18.3403L80.0098 18.2096L80.4991 7.65453L83.3183 7.78522ZM80.451 4.89544C80.47 4.48572 80.6288 4.15418 80.9273 3.9008C81.2258 3.64742 81.6157 3.53189 82.0969 3.5542C82.5717 3.57621 82.946 3.72716 83.2198 4.00707C83.5001 4.28728 83.6307 4.63224 83.6117 5.04196C83.5927 5.45167 83.4307 5.78307 83.1257 6.03614C82.8272 6.28952 82.4406 6.4052 81.9658 6.38319C81.4845 6.36088 81.107 6.20978 80.8332 5.92987C80.5594 5.64996 80.432 5.30515 80.451 4.89544Z" fill="#35D81A"/>
<path d="M96.9877 8.93872L96.7779 10.9198L90.6598 10.2719L90.8696 8.29076L96.9877 8.93872ZM92.6592 5.85829L95.4561 6.1545L94.4039 16.0892C94.3717 16.3935 94.3858 16.6306 94.4464 16.8007C94.5134 16.9715 94.6244 17.0978 94.7794 17.1797C94.9351 17.2551 95.1359 17.3059 95.382 17.3319C95.5568 17.3504 95.7128 17.3604 95.8502 17.3619C95.9947 17.3575 96.1165 17.3508 96.2157 17.3416L96.0073 19.4015C95.7595 19.4538 95.4941 19.4879 95.2109 19.5037C94.9277 19.5195 94.6178 19.5096 94.2811 19.474C93.666 19.4088 93.1393 19.2516 92.7009 19.0022C92.2697 18.747 91.955 18.3798 91.757 17.9006C91.559 17.4213 91.499 16.8127 91.5772 16.0746L92.6592 5.85829Z" fill="#35D81A"/>
<path d="M107.183 10.4392L105.451 20.8626L102.667 20.3998L104.399 9.97641L107.183 10.4392ZM104.678 7.23095C104.745 6.82634 104.942 6.51587 105.268 6.29952C105.594 6.08318 105.995 6.0145 106.47 6.09349C106.939 6.17142 107.293 6.36552 107.532 6.6758C107.777 6.98715 107.866 7.34513 107.799 7.74974C107.732 8.15434 107.532 8.46428 107.199 8.67956C106.872 8.89591 106.475 8.96512 106.006 8.88719C105.531 8.8082 105.174 8.61356 104.935 8.30328C104.696 7.993 104.61 7.63555 104.678 7.23095Z" fill="#35D81A"/>
<path d="M117.842 14.8684L115.892 22.9471L113.158 22.2874L115.637 12.0157L118.2 12.6342L117.842 14.8684ZM116.82 17.3543L116.079 17.1756C116.263 16.4162 116.526 15.7563 116.869 15.1961C117.213 14.6296 117.614 14.1739 118.072 13.829C118.532 13.4779 119.033 13.2471 119.575 13.1369C120.126 13.0218 120.704 13.0376 121.312 13.1842C121.793 13.3003 122.216 13.476 122.581 13.7115C122.946 13.9469 123.235 14.2509 123.446 14.6234C123.664 14.9974 123.788 15.4527 123.82 15.9893C123.857 16.5275 123.789 17.1573 123.615 17.8788L122.034 24.4291L119.281 23.7648L120.864 17.205C120.974 16.7493 120.996 16.3797 120.931 16.096C120.865 15.8123 120.722 15.59 120.499 15.4292C120.285 15.2636 120 15.138 119.646 15.0525C119.279 14.9639 118.941 14.9596 118.634 15.0395C118.333 15.1209 118.063 15.27 117.823 15.4867C117.591 15.6986 117.39 15.9648 117.219 16.2852C117.047 16.6055 116.915 16.9619 116.82 17.3543Z" fill="#35D81A"/>
<path d="M139.212 18.6633L141.628 19.4753L138.374 29.1578C138.067 30.0712 137.603 30.7772 136.982 31.2759C136.365 31.7829 135.64 32.0786 134.808 32.1629C133.974 32.2535 133.079 32.138 132.123 31.8165C131.703 31.6754 131.277 31.4705 130.846 31.2018C130.42 30.9352 130.034 30.613 129.687 30.2354C129.346 29.8598 129.094 29.4454 128.93 28.992L130.635 27.8136C130.823 28.2752 131.088 28.6732 131.429 29.0076C131.767 29.3481 132.184 29.6014 132.677 29.7673C133.159 29.9291 133.596 29.9765 133.99 29.9096C134.381 29.8488 134.723 29.6788 135.016 29.3995C135.307 29.1265 135.532 28.7523 135.692 28.2771L138.175 20.8903L139.212 18.6633ZM130.75 21.5263L130.815 21.3319C131.072 20.5667 131.398 19.9036 131.793 19.3425C132.196 18.7774 132.645 18.3276 133.142 17.9933C133.646 17.661 134.189 17.4555 134.771 17.3767C135.354 17.2978 135.96 17.3642 136.59 17.5758C137.256 17.7998 137.773 18.111 138.141 18.5092C138.508 18.9075 138.76 19.3837 138.897 19.9379C139.036 20.4859 139.081 21.0954 139.034 21.7664C138.996 22.4334 138.9 23.1465 138.748 23.9058L138.605 24.3316C138.278 24.9978 137.921 25.5991 137.535 26.1355C137.149 26.6719 136.729 27.1145 136.275 27.4633C135.823 27.806 135.33 28.0251 134.797 28.1205C134.27 28.218 133.697 28.163 133.08 27.9556C132.463 27.7482 131.947 27.4339 131.532 27.0129C131.124 26.5939 130.82 26.097 130.622 25.5221C130.424 24.9472 130.333 24.319 130.349 23.6376C130.371 22.9583 130.505 22.2545 130.75 21.5263ZM133.481 22.228L133.415 22.4224C133.276 22.8359 133.187 23.2351 133.147 23.62C133.107 24.0049 133.123 24.3642 133.197 24.6979C133.278 25.0275 133.419 25.3119 133.621 25.5513C133.83 25.7865 134.111 25.9632 134.462 26.0815C134.95 26.2453 135.382 26.2773 135.759 26.1774C136.138 26.0713 136.466 25.8621 136.743 25.5498C137.019 25.2376 137.25 24.848 137.434 24.3812L137.842 23.1685C137.96 22.7756 138.025 22.4093 138.036 22.0696C138.049 21.7238 138.01 21.4118 137.918 21.1336C137.826 20.8555 137.668 20.6101 137.444 20.3974C137.221 20.1848 136.927 20.0173 136.562 19.8949C136.211 19.7767 135.878 19.7543 135.565 19.8276C135.26 19.8968 134.976 20.0382 134.712 20.2516C134.454 20.4671 134.219 20.7455 134.009 21.0867C133.8 21.4218 133.624 21.8022 133.481 22.228Z" fill="#35D81A"/>
</svg>
