<svg width="12" height="12" viewBox="0 0 12 12" fill="none" xmlns="http://www.w3.org/2000/svg">
<path fill-rule="evenodd" clip-rule="evenodd" d="M5.75 0C5.94891 0 6.13968 0.0790201 6.28033 0.21967C6.42098 0.36032 6.5 0.55109 6.5 0.75V5H10.75C10.9489 5 11.1397 5.07902 11.2803 5.21967C11.421 5.36032 11.5 5.55109 11.5 5.75C11.5 5.94891 11.421 6.13968 11.2803 6.28033C11.1397 6.42098 10.9489 6.5 10.75 6.5H6.5V10.75C6.5 10.9489 6.42098 11.1397 6.28033 11.2803C6.13968 11.421 5.94891 11.5 5.75 11.5C5.55109 11.5 5.36032 11.421 5.21967 11.2803C5.07902 11.1397 5 10.9489 5 10.75V6.5H0.75C0.55109 6.5 0.36032 6.42098 0.21967 6.28033C0.0790201 6.13968 0 5.94891 0 5.75C0 5.55109 0.0790201 5.36032 0.21967 5.21967C0.36032 5.07902 0.55109 5 0.75 5H5V0.75C5 0.55109 5.07902 0.36032 5.21967 0.21967C5.36032 0.0790201 5.55109 0 5.75 0Z" fill="#D82521"/>
</svg>
