<svg width="24" height="24" viewBox="0 0 24 24" fill="none" xmlns="http://www.w3.org/2000/svg">
<path fill-rule="evenodd" clip-rule="evenodd" d="M2.5 12C2.5 9.48044 3.50089 7.06408 5.28249 5.28249C7.06408 3.50089 9.48044 2.5 12 2.5C14.5196 2.5 16.9359 3.50089 18.7175 5.28249C20.4991 7.06408 21.5 9.48044 21.5 12C21.5 14.5196 20.4991 16.9359 18.7175 18.7175C16.9359 20.4991 14.5196 21.5 12 21.5C9.48044 21.5 7.06408 20.4991 5.28249 18.7175C3.50089 16.9359 2.5 14.5196 2.5 12ZM12 1C5.925 1 1 5.925 1 12C1 18.075 5.925 23 12 23C18.075 23 23 18.075 23 12C23 5.925 18.075 1 12 1ZM18.25 12.75C18.4489 12.75 18.6397 12.671 18.7803 12.5303C18.921 12.3897 19 12.1989 19 12C19 11.8011 18.921 11.6103 18.7803 11.4697C18.6397 11.329 18.4489 11.25 18.25 11.25H5.75C5.55109 11.25 5.36032 11.329 5.21967 11.4697C5.07902 11.6103 5 11.8011 5 12C5 12.1989 5.07902 12.3897 5.21967 12.5303C5.36032 12.671 5.55109 12.75 5.75 12.75H18.25Z" fill="#D82521"/>
</svg>
